<svg width="22" height="12" viewBox="0 0 22 12" fill="none" xmlns="http://www.w3.org/2000/svg">
<path d="M20.71 1.28994C20.617 1.19621 20.5064 1.12182 20.3846 1.07105C20.2627 1.02028 20.132 0.994141 20 0.994141C19.868 0.994141 19.7373 1.02028 19.6154 1.07105C19.4936 1.12182 19.383 1.19621 19.29 1.28994L13 7.58994L8.71 3.28994C8.61704 3.19621 8.50644 3.12182 8.38458 3.07105C8.26272 3.02028 8.13201 2.99414 8 2.99414C7.86799 2.99414 7.73728 3.02028 7.61542 3.07105C7.49356 3.12182 7.38296 3.19621 7.29 3.28994L1.29 9.28994C1.19627 9.3829 1.12188 9.4935 1.07111 9.61536C1.02034 9.73722 0.994202 9.86793 0.994202 9.99994C0.994202 10.132 1.02034 10.2627 1.07111 10.3845C1.12188 10.5064 1.19627 10.617 1.29 10.7099C1.38296 10.8037 1.49356 10.8781 1.61542 10.9288C1.73728 10.9796 1.86799 11.0057 2 11.0057C2.13201 11.0057 2.26272 10.9796 2.38458 10.9288C2.50644 10.8781 2.61704 10.8037 2.71 10.7099L8 5.40994L12.29 9.70994C12.383 9.80367 12.4936 9.87806 12.6154 9.92883C12.7373 9.9796 12.868 10.0057 13 10.0057C13.132 10.0057 13.2627 9.9796 13.3846 9.92883C13.5064 9.87806 13.617 9.80367 13.71 9.70994L20.71 2.70994C20.8037 2.61698 20.8781 2.50638 20.9289 2.38452C20.9797 2.26266 21.0058 2.13195 21.0058 1.99994C21.0058 1.86793 20.9797 1.73722 20.9289 1.61536C20.8781 1.4935 20.8037 1.3829 20.71 1.28994V1.28994Z" fill="white"/>
</svg>
