<svg width="26" height="26" viewBox="0 0 26 26" fill="none" xmlns="http://www.w3.org/2000/svg">
<g filter="url(#filter0_d_1_5124)">
<g clip-path="url(#clip0_1_5124)">
<circle cx="13" cy="12" r="9.375" fill="#22C55E" stroke="#16A34A" stroke-width="1.25"/>
</g>
</g>
<path d="M18.5917 8.00846C18.5142 7.93035 18.4221 7.86836 18.3205 7.82605C18.219 7.78374 18.11 7.76196 18 7.76196C17.89 7.76196 17.7811 7.78374 17.6796 7.82605C17.578 7.86836 17.4858 7.93035 17.4084 8.00846L11.2 14.2251L8.59171 11.6085C8.51127 11.5308 8.41632 11.4697 8.31227 11.4287C8.20823 11.3877 8.09713 11.3676 7.98531 11.3695C7.87349 11.3714 7.76315 11.3954 7.66058 11.4399C7.55802 11.4845 7.46524 11.5489 7.38754 11.6293C7.30984 11.7097 7.24875 11.8047 7.20774 11.9087C7.16674 12.0128 7.14663 12.1239 7.14856 12.2357C7.1505 12.3475 7.17444 12.4579 7.21902 12.5604C7.2636 12.663 7.32794 12.7558 7.40837 12.8335L10.6084 16.0335C10.6858 16.1116 10.778 16.1736 10.8796 16.2159C10.9811 16.2582 11.09 16.28 11.2 16.28C11.3101 16.28 11.419 16.2582 11.5205 16.2159C11.6221 16.1736 11.7142 16.1116 11.7917 16.0335L18.5917 9.23346C18.6763 9.15543 18.7438 9.06072 18.79 8.9553C18.8361 8.84988 18.86 8.73605 18.86 8.62096C18.86 8.50588 18.8361 8.39204 18.79 8.28662C18.7438 8.18121 18.6763 8.0865 18.5917 8.00846Z" fill="white"/>
<defs>
<filter id="filter0_d_1_5124" x="0.5" y="0.75" width="25" height="25" filterUnits="userSpaceOnUse" color-interpolation-filters="sRGB">
<feFlood flood-opacity="0" result="BackgroundImageFix"/>
<feColorMatrix in="SourceAlpha" type="matrix" values="0 0 0 0 0 0 0 0 0 0 0 0 0 0 0 0 0 0 127 0" result="hardAlpha"/>
<feOffset dy="1.25"/>
<feGaussianBlur stdDeviation="1.25"/>
<feColorMatrix type="matrix" values="0 0 0 0 0 0 0 0 0 0 0 0 0 0 0 0 0 0 0.05 0"/>
<feBlend mode="normal" in2="BackgroundImageFix" result="effect1_dropShadow_1_5124"/>
<feBlend mode="normal" in="SourceGraphic" in2="effect1_dropShadow_1_5124" result="shape"/>
</filter>
<clipPath id="clip0_1_5124">
<rect x="3" y="2" width="20" height="20" rx="10" fill="white"/>
</clipPath>
</defs>
</svg>
