<svg xmlns="http://www.w3.org/2000/svg" xmlns:xlink="http://www.w3.org/1999/xlink" viewBox="0 0 525.42 210.28"><defs><style>.cls-1{fill:url(#linear-gradient);}.cls-2{fill:url(#linear-gradient-2);}.cls-3{fill:url(#linear-gradient-3);}.cls-4{fill:url(#linear-gradient-4);}.cls-5{fill:url(#linear-gradient-5);}</style><linearGradient id="linear-gradient" x1="-183.64" y1="82.71" x2="648.82" y2="82.71" gradientUnits="userSpaceOnUse"><stop offset="0" stop-color="#5f2b7a"/><stop offset="0.22" stop-color="#1d4589"/><stop offset="0.37" stop-color="#1ac0dc"/><stop offset="0.62" stop-color="#22b571"/><stop offset="0.83" stop-color="#f6891f"/><stop offset="1" stop-color="#ef3846"/></linearGradient><linearGradient id="linear-gradient-2" x1="-183.64" y1="105.14" x2="648.82" y2="105.14" gradientUnits="userSpaceOnUse"><stop offset="0" stop-color="#5f2b7a"/><stop offset="0.23" stop-color="#1d4589"/><stop offset="0.38" stop-color="#1ac0dc"/><stop offset="0.42" stop-color="#1cbdbc"/><stop offset="0.48" stop-color="#1fb99c"/><stop offset="0.53" stop-color="#21b784"/><stop offset="0.58" stop-color="#22b676"/><stop offset="0.62" stop-color="#22b571"/><stop offset="0.67" stop-color="#4fac5f"/><stop offset="0.78" stop-color="#c19434"/><stop offset="0.83" stop-color="#f6891f"/><stop offset="1" stop-color="#ef3846"/></linearGradient><linearGradient id="linear-gradient-3" x1="-183.64" y1="105.14" x2="648.82" y2="105.14" gradientUnits="userSpaceOnUse"><stop offset="0" stop-color="#5f2b7a"/><stop offset="0.2" stop-color="#1d4589"/><stop offset="0.37" stop-color="#1ac0dc"/><stop offset="0.62" stop-color="#22b571"/><stop offset="0.83" stop-color="#f6891f"/><stop offset="1" stop-color="#ef3846"/></linearGradient><linearGradient id="linear-gradient-4" x1="-192.24" y1="82.7" x2="649.66" y2="82.7" xlink:href="#linear-gradient-3"/><linearGradient id="linear-gradient-5" x1="-185.24" y1="128.5" x2="647.23" y2="128.5" xlink:href="#linear-gradient-3"/></defs><g id="Layer_2" data-name="Layer 2"><g id="Layer_1-2" data-name="Layer 1"><path class="cls-1" d="M91.08,105.14A60,60,0,0,1,120.32,53.4V0L89.72,18.41V53.74q-12.39-8.88-29.44-8.88a58.66,58.66,0,0,0-30.14,8.06,60.6,60.6,0,0,0-22,22,60,60,0,0,0,0,60.51,60.63,60.63,0,0,0,22,22,58.66,58.66,0,0,0,30.14,8.06,58.69,58.69,0,0,0,30.14-8.06,59.81,59.81,0,0,0,15.29-12.72,60.47,60.47,0,0,1-6.57-9.25A59.27,59.27,0,0,1,91.08,105.14ZM81.54,127a29,29,0,0,1-21.49,8.77q-12.86,0-21.27-8.77t-8.41-21.84q0-13.08,8.41-21.85t21.27-8.76a29,29,0,0,1,21.49,8.76q8.64,8.76,8.65,21.85T81.54,127Z"/><path class="cls-2" d="M185.82,111.24h0c-.19-2-.3-4-.3-6.1s.11-4.1.3-6.1a58.84,58.84,0,0,1,7.76-24.16,60.85,60.85,0,0,1,6.69-9.37,60.69,60.69,0,0,0-75.8-12.59c-.27.15-.52.33-.78.48a60,60,0,0,0-29.25,51.74,59.24,59.24,0,0,0,8.07,30.26,60.18,60.18,0,0,0,6.57,9.24,60.43,60.43,0,0,0,91.19.13,60.37,60.37,0,0,1-6.69-9.37A58.84,58.84,0,0,1,185.82,111.24ZM176.22,127c-.34.35-.68.7-1,1-.7.66-1.43,1.28-2.18,1.86a22.51,22.51,0,0,1-2.3,1.6,28.56,28.56,0,0,1-35.56-4.5q-8.66-8.74-8.65-21.84t8.65-21.85a28.58,28.58,0,0,1,35.57-4.49,25,25,0,0,1,2.3,1.6c.74.58,1.47,1.2,2.17,1.86.35.33.69.68,1,1q8.42,8.77,8.41,21.85T176.22,127Z"/><path class="cls-3" d="M249.4,74.53a29.8,29.8,0,0,1,14.84,3.74,28.64,28.64,0,0,1,10.63,10.28h32.24a60.4,60.4,0,0,0-88.19-35.63,59.36,59.36,0,0,0-15.28,12.59A60.37,60.37,0,0,0,197,74.88a60.83,60.83,0,0,0,0,60.52,60.37,60.37,0,0,0,6.69,9.37,60.72,60.72,0,0,0,81.75,8.73,58.37,58.37,0,0,0,21.49-30.61H273.94a29.88,29.88,0,0,1-10.52,9.47A30.77,30.77,0,0,1,227.91,127q-8.66-8.77-8.65-21.85t8.65-21.85A29,29,0,0,1,249.4,74.53Z"/><polygon class="cls-4" points="374.48 92.63 419.37 47.26 380.15 47.26 340.93 86.25 340.93 17.68 310.21 0 310.21 165.4 340.93 165.4 340.93 124.76 353.69 112 392.67 165.4 426.93 165.4 374.48 92.63"/><path class="cls-5" d="M495.05,108.18q0,14.25-5,20.91t-16,6.66q-11,0-16-6.66t-5-20.91V46.73H422.62v61.45q0,28.5,14,42.87T474,165.42a53.24,53.24,0,0,0,20.79-4.21v.7q0,8.64-5.14,13.67t-15.65,5q-6.07,0-9.7-2.1a27.3,27.3,0,0,1-7.12-6.31H423.32q6.3,17.53,19.51,27.81T474,210.28a50.93,50.93,0,0,0,26.4-6.9,49.19,49.19,0,0,0,18.34-18.92,54.3,54.3,0,0,0,6.66-26.75v-111H495.05Z"/></g></g></svg>