<svg width="12" height="10" viewBox="0 0 12 10" fill="none" xmlns="http://www.w3.org/2000/svg">
<path d="M11.5917 1.00846C11.5142 0.930354 11.4221 0.868359 11.3205 0.826052C11.219 0.783745 11.11 0.761963 11 0.761963C10.89 0.761963 10.7811 0.783745 10.6796 0.826052C10.578 0.868359 10.4858 0.930354 10.4084 1.00846L4.20004 7.22513L1.59171 4.60846C1.51127 4.53076 1.41632 4.46967 1.31227 4.42866C1.20823 4.38766 1.09713 4.36755 0.985308 4.36949C0.873491 4.37142 0.76315 4.39536 0.660584 4.43994C0.558019 4.48452 0.465238 4.54886 0.387539 4.6293C0.309841 4.70973 0.248746 4.80468 0.207742 4.90873C0.166739 5.01277 0.14663 5.12388 0.148565 5.23569C0.150499 5.34751 0.174439 5.45785 0.219017 5.56042C0.263595 5.66298 0.327938 5.75576 0.408373 5.83346L3.60837 9.03346C3.68584 9.11157 3.77801 9.17356 3.87956 9.21587C3.98111 9.25818 4.09003 9.27996 4.20004 9.27996C4.31005 9.27996 4.41897 9.25818 4.52052 9.21587C4.62207 9.17356 4.71424 9.11157 4.79171 9.03346L11.5917 2.23346C11.6763 2.15543 11.7438 2.06072 11.79 1.9553C11.8361 1.84988 11.86 1.73605 11.86 1.62096C11.86 1.50588 11.8361 1.39204 11.79 1.28662C11.7438 1.18121 11.6763 1.0865 11.5917 1.00846Z" fill="white"/>
</svg>
