<svg width="29" height="36" viewBox="0 0 29 36" fill="none" xmlns="http://www.w3.org/2000/svg">
<path d="M21.6339 22.999C21.6254 20.7711 22.2553 18.5797 23.4615 16.6403C24.6677 14.701 26.4087 13.0807 28.5131 11.9389V0.521729L21.3141 4.45787V12.0095C19.3746 10.7452 17.0674 10.113 14.3926 10.113C11.9018 10.0939 9.45194 10.6895 7.30409 11.8363C5.15764 12.9671 3.3739 14.5887 2.13001 16.54C0.871461 18.5038 0.208374 20.7359 0.208374 23.0086C0.208374 25.2814 0.871461 27.5135 2.13001 29.4773C3.3739 31.4286 5.15764 33.0502 7.30409 34.181C9.45961 35.3101 11.9037 35.9044 14.3914 35.9044C16.8791 35.9044 19.3232 35.3101 21.4787 34.181C22.8373 33.4651 24.0531 32.5456 25.0747 31.4614C24.4941 30.8473 23.9769 30.186 23.5295 29.4858C22.2679 27.5177 21.6131 25.2769 21.6339 22.999ZM19.3926 27.6706C18.7372 28.2826 17.9497 28.7649 17.0795 29.0872C16.2094 29.4095 15.2754 29.5648 14.3361 29.5436C12.3198 29.5436 10.6531 28.9193 9.3361 27.6706C8.01906 26.422 7.35976 24.8648 7.35819 22.999C7.35819 21.1346 8.01749 19.5781 9.3361 18.3295C10.6547 17.0809 12.3214 16.4566 14.3361 16.4566C15.2754 16.4353 16.2094 16.5907 17.0795 16.913C17.9497 17.2353 18.7372 17.7175 19.3926 18.3295C20.7473 19.5781 21.4246 21.1346 21.4246 22.999C21.4246 24.8634 20.7473 26.4206 19.3926 27.6706Z" fill="url(#paint0_linear_1_1791)"/>
<defs>
<linearGradient id="paint0_linear_1_1791" x1="-42.9762" y1="18.2055" x2="152.809" y2="18.2055" gradientUnits="userSpaceOnUse">
<stop stop-color="#5F2B7A"/>
<stop offset="0.22" stop-color="#1D4589"/>
<stop offset="0.37" stop-color="#1AC0DC"/>
<stop offset="0.62" stop-color="#22B571"/>
<stop offset="0.83" stop-color="#F6891F"/>
<stop offset="1" stop-color="#EF3846"/>
</linearGradient>
</defs>
</svg>
